<?xml version="1.0" encoding="UTF-8" standalone="no"?>
<!-- Created with Inkscape (http://www.inkscape.org/) -->

<svg
   width="24"
   height="24"
   viewBox="0 0 6.35 6.35"
   version="1.1"
   id="svg5"
   xmlns="http://www.w3.org/2000/svg"
   xmlns:svg="http://www.w3.org/2000/svg">
  <defs
     id="defs2" />
  <g
     id="layer1">
    <path
       id="path2627"
       style="color:#000000;fill:#a9adb2;fill-opacity:1;stroke-width:1;-inkscape-stroke:none"
       d="m 3.0185292,0.26458333 -0.4805908,0.021704 0.2754353,0.39429118 C 3.0490876,1.0183408 3.2044059,1.3941898 3.2732939,1.7849039 3.4833395,1.8825205 3.6750166,2.0132387 3.841218,2.1709268 3.8250467,1.7313418 3.6597171,1.3187076 3.4732818,0.91880689 4.6419811,1.1347358 5.5630766,2.0754592 5.5630766,3.3078084 5.5630766,4.6993013 4.4410274,5.8213503 3.049535,5.82135 2.9336131,5.821246 2.8190469,5.81214 2.7058867,5.795511 2.601954,5.811365 2.4957574,5.819281 2.38756,5.819281 1.9960164,5.819281 1.6836066,5.6379248 1.387621,5.4559957 L 1.1607615,5.6906064 c 0.534733,0.4239088 1.2002783,0.6572208 1.8887735,0.6578412 1.6774601,0 3.0411581,-1.3631809 3.0411581,-3.0406414 0,-1.6774583 -1.363698,-3.04322304 -3.0411581,-3.04322287 h -0.00362 -0.00414 -0.00206 c -0.00978,3.6777e-4 -0.017193,-1.7726e-4 -0.021188,0 z M 4.5021596,1.1384318 C 4.6873725,1.2071411 4.8786228,1.2537249 5.0199574,1.3895792 4.8804228,1.2578595 4.6868414,1.2077629 4.5021596,1.1384318 Z M 3.1999136,3.0189371 C 3.0000248,3.6852947 2.5463408,4.2675762 1.9193715,4.6565632 2.0599074,4.7244722 2.2185184,4.7624999 2.38756,4.7624999 c 0.109994,0 0.2156229,-0.015563 0.3147094,-0.045475 C 3.0022333,4.4507298 3.253093,4.139166 3.4422759,3.7951171 c 0.00246,-0.029966 0.00362,-0.060257 0.00362,-0.09095 0,-0.263081 -0.091996,-0.5013486 -0.2459797,-0.6852295 z" />
    <path
       style="color:#000000;fill:#a9adb2;fill-opacity:1;stroke-width:0.264583;-inkscape-stroke:none"
       d="m 2.3876313,1.9844152 c -0.9482469,0 -1.71979182,0.7715449 -1.71979182,1.7197917 0,0.426443 0.15622098,0.8169102 0.41418672,1.1177613 L 0.21567068,5.7157309 0.40299775,5.9022828 1.2688365,5.0092953 c 0.3009285,0.2582609 0.6920793,0.414445 1.1187948,0.414445 0.9482468,0 1.7195333,-0.7712865 1.7195333,-1.7195334 0,-0.9482468 -0.7712865,-1.7197917 -1.7195333,-1.7197917 z m 0,0.2635499 c 0.8052556,0 1.45495,0.6509864 1.45495,1.4562418 0,0.8052556 -0.6496944,1.4549495 -1.45495,1.45495 -0.8052554,0 -1.45520852,-0.6496944 -1.45520852,-1.45495 0,-0.8052554 0.64995312,-1.4562418 1.45520852,-1.4562418 z"
       id="path2617" />
    <path
       style="color:#000000;fill:#a9adb2;fill-opacity:1;stroke-width:0.529167;-inkscape-stroke:none"
       d="m 2.3875031,1.8525182 c -1.0200057,0 -1.85156265,0.831557 -1.85156265,1.8515625 0,0.4110132 0.17065045,0.7704439 0.39843753,1.078125 l -0.9042969,0.9355469 0.375,0.3730469 0.90429702,-0.9335938 c 0.3076836,0.2274603 0.6674792,0.3984375 1.078125,0.3984375 1.0199815,0 1.8515625,-0.8315809 1.8515625,-1.8515625 0,-1.0199815 -0.831557,-1.8515625 -1.8515625,-1.8515625 z m 0,0.5273438 c 0.7339565,0 1.3222656,0.5901209 1.3222656,1.3242187 0,0.7340981 -0.5881675,1.3222652 -1.3222656,1.3222656 -0.7340978,0 -1.3222657,-0.5881959 -1.3222657,-1.3222656 0,-0.7340695 0.5883094,-1.3242187 1.3222657,-1.3242187 z M 0.79961233,3.7040807 c 0,0.8764399 0.71147937,1.5878906 1.58789077,1.5878906 -0.3944347,0 -0.7552647,-0.1442819 -1.0332032,-0.3828125 l -0.09375,-0.082031 -0.078125,-0.091797 C 0.94409818,4.4573835 0.79961233,4.0982146 0.79961233,3.7040807 Z"
       id="path2680" />
  </g>
</svg>